<!DOCTYPE svg PUBLIC "-//W3C//DTD SVG 20010904//EN" "http://www.w3.org/TR/2001/REC-SVG-20010904/DTD/svg10.dtd">
<svg version="1.0" xmlns="http://www.w3.org/2000/svg" width="14px" height="17px" viewBox="0 0 140 170" preserveAspectRatio="xMidYMid meet">
<g id="layer101" fill="#6b6b6b" stroke="none">
 <path d="M0 85 l0 -85 70 0 70 0 0 85 0 85 -70 0 -70 0 0 -85z"/>
 </g>
<g id="layer102" fill="#949494" stroke="none">
 <path d="M100 163 c8 -3 21 -12 28 -21 10 -14 12 -13 12 6 0 18 -6 22 -27 21 -16 0 -21 -3 -13 -6z"/>
 <path d="M42 118 c3 -25 25 -33 47 -19 21 14 5 41 -24 41 -22 0 -26 -4 -23 -22z"/>
 <path d="M122 88 c-7 -7 -8 -17 -2 -29 12 -22 4 -46 -18 -52 -10 -3 -5 -5 11 -6 26 -1 27 1 27 49 0 54 -1 55 -18 38z"/>
 <path d="M40 50 c0 -16 5 -21 23 -18 12 2 22 10 22 18 0 8 -10 16 -22 18 -18 3 -23 -2 -23 -18z"/>
 </g>
<g id="layer103" fill="#b2b2b2" stroke="none">
 <path d="M101 167 c2 -1 12 -9 22 -16 14 -12 17 -11 17 3 0 10 -8 16 -22 16 -12 0 -19 -1 -17 -3z"/>
 <path d="M47 133 c-15 -14 -6 -33 16 -33 29 0 37 7 30 26 -5 14 -35 19 -46 7z"/>
 <path d="M121 86 c-8 -10 -9 -16 -1 -21 16 -10 12 -43 -7 -54 -16 -9 -16 -10 5 -11 20 0 22 5 22 50 0 54 -2 57 -19 36z"/>
 <path d="M44 59 c-9 -15 11 -33 30 -26 9 4 13 13 10 22 -7 17 -30 20 -40 4z"/>
 </g>
<g id="layer104" fill="#d3d3d3" stroke="none">
 <path d="M110 166 c0 -2 7 -9 15 -16 12 -10 15 -10 15 4 0 9 -7 16 -15 16 -8 0 -15 -2 -15 -4z"/>
 <path d="M50 121 c0 -15 6 -21 21 -21 25 0 22 33 -4 38 -12 2 -17 -3 -17 -17z"/>
 <path d="M123 83 c-10 -3 -10 -9 0 -24 9 -15 9 -23 -1 -39 -10 -17 -10 -20 3 -20 11 0 15 12 15 45 0 25 -1 45 -2 44 -2 0 -8 -3 -15 -6z"/>
 <path d="M50 50 c0 -13 5 -20 13 -18 6 3 12 11 12 18 0 7 -6 15 -12 18 -8 2 -13 -5 -13 -18z"/>
 </g>
<g id="layer105" fill="#fbfbfb" stroke="none">
 <path d="M110 166 c0 -2 7 -6 15 -10 8 -3 15 -1 15 4 0 6 -7 10 -15 10 -8 0 -15 -2 -15 -4z"/>
 <path d="M50 115 c0 -8 9 -15 20 -15 11 0 20 7 20 15 0 8 -9 15 -20 15 -11 0 -20 -7 -20 -15z"/>
 <path d="M127 84 c-4 -4 -4 -18 -1 -31 4 -13 1 -30 -6 -38 -10 -12 -9 -15 4 -15 12 0 16 10 16 45 0 46 -2 50 -13 39z"/>
 <path d="M50 50 c0 -5 7 -10 15 -10 8 0 15 5 15 10 0 6 -7 10 -15 10 -8 0 -15 -4 -15 -10z"/>
 </g>

</svg>