<!DOCTYPE svg PUBLIC "-//W3C//DTD SVG 20010904//EN" "http://www.w3.org/TR/2001/REC-SVG-20010904/DTD/svg10.dtd">
<svg version="1.0" xmlns="http://www.w3.org/2000/svg" width="19px" height="20px" viewBox="0 0 190 200" preserveAspectRatio="xMidYMid meet">
<g id="layer101" fill="#737373" stroke="none">
 <path d="M0 100 l0 -100 95 0 95 0 0 100 0 100 -95 0 -95 0 0 -100z"/>
 </g>
<g id="layer102" fill="#979797" stroke="none">
 <path d="M2 100 l0 -100 93 0 93 0 0 100 0 100 -93 0 -93 0 0 -100z m176 25 c-3 -3 -9 2 -12 12 -6 14 -5 15 5 6 7 -7 10 -15 7 -18z m-21 -12 c-4 -3 -7 0 -7 7 0 7 3 10 7 7 3 -4 3 -10 0 -14z m0 -40 c-4 -3 -7 0 -7 7 0 7 3 10 7 7 3 -4 3 -10 0 -14z m23 -7 c0 -3 -5 -8 -12 -12 -7 -4 -8 -3 -4 4 7 12 16 16 16 8z"/>
 </g>
<g id="layer103" fill="#aaaaaa" stroke="none">
 <path d="M14 185 c-3 -6 -4 -50 -2 -96 l3 -84 44 0 c39 0 44 3 48 24 2 14 6 27 9 30 3 3 4 -9 1 -26 -5 -32 -5 -33 33 -33 l38 0 0 100 0 100 -40 0 c-22 0 -37 -4 -33 -9 3 -5 1 -13 -5 -16 -6 -4 -9 -1 -8 5 4 16 -83 20 -88 5z m53 -12 c-4 -3 -10 -3 -14 0 -3 4 0 7 7 7 7 0 10 -3 7 -7z m50 -80 c-2 -16 -4 -5 -4 22 0 28 2 40 4 28 2 -13 2 -35 0 -50z m62 33 c-3 -3 -11 5 -18 17 -13 21 -12 21 5 5 10 -10 16 -20 13 -22z m-15 -40 c-3 -9 -11 -16 -16 -16 -7 0 -6 5 1 14 6 7 9 22 5 32 -5 17 -4 17 5 2 6 -9 8 -23 5 -32z m2 -34 c-17 -16 -18 -16 -5 5 7 12 15 20 18 17 3 -2 -3 -12 -13 -22z"/>
 </g>
<g id="layer104" fill="#cdcdcd" stroke="none">
 <path d="M85 189 l-30 -8 33 3 32 3 0 -86 0 -86 -57 3 c-91 6 -58 -5 40 -13 l87 -7 0 38 0 37 -22 -19 -22 -19 17 25 c20 29 22 56 5 66 -8 5 -9 2 -5 -9 7 -20 -1 -47 -14 -47 -6 0 -5 8 1 19 7 13 7 22 0 26 -5 3 -10 11 -10 16 0 6 5 7 12 3 8 -5 9 -2 4 11 -7 18 -6 18 14 0 20 -18 20 -18 20 18 0 36 -1 37 -37 36 -21 -1 -51 -5 -68 -10z"/>
 <path d="M18 183 c6 -2 18 -2 25 0 6 3 1 5 -13 5 -14 0 -19 -2 -12 -5z"/>
 <path d="M10 100 l0 -71 48 3 47 3 0 65 0 65 -47 3 -48 3 0 -71z"/>
 </g>
<g id="layer105" fill="#fefefe" stroke="none">
 <path d="M120 100 l0 -100 35 0 c34 0 35 1 35 37 0 34 -1 35 -14 17 -19 -26 -28 -14 -31 40 -2 58 10 78 30 52 14 -19 15 -18 15 17 0 36 -1 37 -35 37 l-35 0 0 -100z"/>
 <path d="M18 183 c6 -2 18 -2 25 0 6 3 1 5 -13 5 -14 0 -19 -2 -12 -5z"/>
 <path d="M78 183 c7 -3 16 -2 19 1 4 3 -2 6 -13 5 -11 0 -14 -3 -6 -6z"/>
 <path d="M10 102 c0 -32 2 -61 4 -63 3 -3 23 -3 45 -1 l41 4 0 59 0 59 -45 0 -45 0 0 -58z"/>
 <path d="M155 130 c3 -5 8 -10 11 -10 3 0 2 5 -1 10 -3 6 -8 10 -11 10 -3 0 -2 -4 1 -10z"/>
 <path d="M170 100 c0 -7 3 -10 7 -7 3 4 3 10 0 14 -4 3 -7 0 -7 -7z"/>
 <path d="M154 68 c-4 -7 -3 -8 4 -4 7 4 12 9 12 12 0 8 -9 4 -16 -8z"/>
 <path d="M33 13 c15 -2 37 -2 50 0 12 2 0 4 -28 4 -27 0 -38 -2 -22 -4z"/>
 </g>

</svg>