<!DOCTYPE svg PUBLIC "-//W3C//DTD SVG 20010904//EN" "http://www.w3.org/TR/2001/REC-SVG-20010904/DTD/svg10.dtd">
<svg version="1.0" xmlns="http://www.w3.org/2000/svg" width="18px" height="18px" viewBox="0 0 180 180" preserveAspectRatio="xMidYMid meet">
<g id="layer101" fill="#686868" stroke="none">
 <path d="M0 90 l0 -90 90 0 90 0 0 90 0 90 -90 0 -90 0 0 -90z"/>
 </g>
<g id="layer102" fill="#8a8a8a" stroke="none">
 <path d="M0 169 c0 -5 5 -7 10 -4 5 3 10 8 10 11 0 2 -4 4 -10 4 -5 0 -10 -5 -10 -11z"/>
 <path d="M165 170 c3 -5 8 -10 11 -10 2 0 4 5 4 10 0 6 -5 10 -11 10 -5 0 -7 -4 -4 -10z"/>
 <path d="M20 115 c0 -25 5 -45 10 -45 6 0 10 10 10 23 0 30 18 47 50 47 32 0 50 -17 50 -47 0 -13 5 -23 10 -23 6 0 10 20 10 45 l0 45 -70 0 -70 0 0 -45z"/>
 <path d="M60 115 c-26 -32 13 -81 48 -59 9 6 18 19 20 28 8 38 -43 61 -68 31z"/>
 <path d="M120 40 c0 -13 7 -20 20 -20 13 0 20 7 20 20 0 13 -7 20 -20 20 -13 0 -20 -7 -20 -20z"/>
 <path d="M0 10 c0 -5 5 -10 11 -10 5 0 7 5 4 10 -3 6 -8 10 -11 10 -2 0 -4 -4 -4 -10z"/>
 <path d="M165 10 c-3 -5 -1 -10 4 -10 6 0 11 5 11 10 0 6 -2 10 -4 10 -3 0 -8 -4 -11 -10z"/>
 </g>
<g id="layer103" fill="#b1b1b1" stroke="none">
 <path d="M20 114 c0 -27 4 -43 10 -39 6 3 10 14 10 24 0 25 20 41 50 41 30 0 50 -16 50 -41 0 -10 5 -21 10 -24 6 -4 10 12 10 39 l0 46 -70 0 -70 0 0 -46z"/>
 <path d="M66 114 c-9 -8 -16 -19 -16 -24 0 -11 29 -40 40 -40 11 0 40 29 40 40 0 11 -29 40 -40 40 -5 0 -16 -7 -24 -16z"/>
 <path d="M127 53 c-14 -13 -6 -33 13 -33 13 0 20 7 20 20 0 19 -20 27 -33 13z"/>
 </g>
<g id="layer104" fill="#d0d0d0" stroke="none">
 <path d="M20 120 c0 -22 5 -40 11 -40 5 0 7 4 4 10 -3 5 5 21 20 36 19 19 31 23 48 18 26 -8 21 -3 40 -39 l16 -30 1 43 0 42 -70 0 -70 0 0 -40z"/>
 <path d="M64 105 c-15 -38 29 -62 56 -30 16 19 -3 45 -32 45 -10 0 -21 -7 -24 -15z"/>
 <path d="M131 50 c-16 -9 -6 -30 15 -30 15 0 20 25 6 34 -4 2 -14 1 -21 -4z"/>
 </g>
<g id="layer105" fill="#fbfbfb" stroke="none">
 <path d="M27 154 c-4 -4 -7 -23 -7 -43 l1 -36 14 32 c14 34 43 48 76 38 11 -4 27 -21 35 -38 l14 -32 -2 40 -3 40 -60 3 c-34 2 -64 0 -68 -4z"/>
 <path d="M64 106 c-10 -26 4 -48 28 -44 33 4 33 52 0 56 -13 2 -25 -3 -28 -12z"/>
 <path d="M130 34 c0 -17 22 -14 28 4 2 7 -3 12 -12 12 -9 0 -16 -7 -16 -16z"/>
 </g>

</svg>